<svg version="1.1" id="Layer_1" xmlns="http://www.w3.org/2000/svg" x="0" y="0" viewBox="0 0 350.2 51.4" style="enable-background:new 0 0 350.2 51.4" xml:space="preserve">
  <style>
    .st0{fill:#e31837}
  </style>
  <path class="st0" d="M72.3 40.8c-5 0-9.1-4.2-9.1-9.4 0-5.1 4-9.1 9.1-9.1s9.1 4 9.1 9.1c-.1 5.2-4.2 9.4-9.1 9.4zm0-17c-4.2 0-7.4 3.3-7.4 7.6 0 4.4 3.3 7.9 7.4 7.9 4.2 0 7.4-3.5 7.4-7.9 0-4.3-3.3-7.6-7.4-7.6z"/>
  <path class="st0" d="M72.3 22.5c4.9 0 8.8 3.9 8.8 8.9 0 5.1-4 9.1-8.8 9.1-4.9 0-8.8-4-8.8-9.1-.1-5 3.9-8.9 8.8-8.9m0 17c4.3 0 7.7-3.5 7.7-8.1 0-4.5-3.4-7.9-7.7-7.9s-7.7 3.4-7.7 7.9c0 4.6 3.4 8.1 7.7 8.1m0-17.5c-5.2 0-9.3 4.1-9.3 9.4 0 5.3 4.2 9.6 9.3 9.6 5.1 0 9.3-4.3 9.3-9.6S77.5 22 72.3 22zm0 17c-4 0-7.2-3.3-7.2-7.6 0-4.1 3.2-7.4 7.2-7.4s7.2 3.2 7.2 7.4c-.1 4.3-3.2 7.6-7.2 7.6zm26 1.5h-.8c-1.6 0-1.9-.2-2.6-1.4l-3.1-5.2c-.5-.8-.7-1-1.8-1h-2.7V39h2.4v1.6h-6.3V39h2.3V24.1h-2.3v-1.6H91c1.2 0 2.1.1 3.1.4 1.3.5 2.9 1.7 2.9 4.5 0 2.7-1.5 4.7-3.9 5.2.1.1.2.2.2.4l3.3 5.6c.2.4.4.4 1.1.4h.8v1.3l-.2.2zm-10.9-9.2h4.4c2.2 0 3.6-1.5 3.6-3.8 0-1.6-.7-2.6-2-3.1-.6-.2-1.4-.3-2.4-.3h-3.6v7.2z"/>
  <path class="st0" d="M91 22.8c1.2 0 2 .1 3 .4 1.6.6 2.7 2 2.7 4.2 0 2.7-1.6 4.7-4.2 5 0 0 .2.2.5.6l3.3 5.6c.3.5.6.6 1.3.6h.5v1h-.5c-1.5 0-1.7-.2-2.4-1.3l-3.1-5.2c-.5-.9-.9-1.2-2.1-1.2h-2.9v6.7h2.4v1h-5.8v-1H86V23.8h-2.4v-1H91m-3.9 8.7h4.6c2.3 0 3.9-1.6 3.9-4 0-1.8-.8-2.8-2.1-3.3-.7-.3-1.5-.3-2.5-.3h-3.9v7.6m3.9-9.2h-7.8v2h2.4v14.4h-2.4v2H90v-2h-2.4V33H90c1 0 1.2.2 1.6.9l3.1 5.3c.8 1.3 1.1 1.6 2.8 1.6h1v-2h-1c-.6 0-.7-.1-.8-.3l-3.3-5.6v-.1c2.3-.6 3.8-2.6 3.8-5.3 0-2.3-1.1-3.9-3-4.7-1.1-.4-2-.5-3.2-.5zm-3.4 2H91c1 0 1.7.1 2.3.3 1.2.5 1.8 1.4 1.8 2.9 0 2.1-1.3 3.5-3.4 3.5h-4.1v-6.7zm20 16.2H100V39h2.4V24.1H100v-1.6h7.6c1.4 0 2.5.1 3.8.5 3.4 1.2 5.4 4.2 5.4 8.5 0 4.4-2.1 7.5-5.9 8.6-.9.3-1.9.4-3.3.4zM104 39h3.4c1.3 0 2.2-.1 3.1-.4 3-.9 4.7-3.5 4.7-7.1 0-3.5-1.6-6.1-4.4-7.1-1.1-.4-2.2-.4-3.4-.4H104v15z"/>
  <path class="st0" d="M107.6 22.8c1.5 0 2.6.1 3.8.5 3.3 1.1 5.2 4.1 5.2 8.3 0 4.4-2.1 7.3-5.7 8.3-1 .3-2.1.4-3.3.4h-7.3v-1h2.4V23.8h-2.4v-1h7.3m-3.8 16.4h3.7c1.2 0 2.2-.1 3.2-.4 3-.9 4.9-3.5 4.9-7.3 0-3.7-1.7-6.3-4.6-7.3-1.1-.4-2.1-.4-3.5-.4h-3.7v15.4m3.8-16.9h-7.8v2h2.4v14.4h-2.4v2h7.8c1.1 0 2.2 0 3.4-.4 3.8-1.1 6.1-4.3 6.1-8.8 0-4.3-2.1-7.6-5.6-8.7-1.3-.4-2.5-.5-3.9-.5zm-3.3 2h3.2c1.4 0 2.3.1 3.3.4 2.7.9 4.3 3.4 4.3 6.8 0 3.5-1.6 6-4.5 6.8-.9.3-1.8.4-3.1.4h-3.2V24.3zm27.8 16.2h-13V39h2.3V24.1h-2.3v-1.5h12.5v3.7H130v-2.2h-7v6.6h6.9v1.5H123V39h7.5v-2.4h1.6v3.6z"/>
  <path class="st0" d="M131.3 22.8V26h-1v-2.2h-7.5V31h6.9v1h-6.9v7.3h8v-2.4h1v3.4h-12.5v-1h2.4V23.8h-2.4v-1h12m.5-.5h-13v2h2.4v14.4h-2.4v2h13.5v-4.4h-2v2.4h-7v-6.3h6.9v-1.9h-6.9v-6.1h6.5v2.2h2v-4.3zm17.5 18.2h-.8c-1.6 0-1.9-.2-2.6-1.4l-3.1-5.2c-.5-.8-.7-1-1.8-1h-2.7V39h2.3v1.6h-6.3V39h2.4V24.1h-2.4v-1.6h7.6c1.2 0 2.1.1 3.1.4 1.3.5 2.9 1.7 2.9 4.5 0 2.7-1.5 4.7-3.9 5.2.1.1.2.2.2.4l3.3 5.6c.2.4.4.4 1.1.4h.7v1.5zm-11-9.2h4.4c2.2 0 3.6-1.5 3.6-3.8 0-1.6-.7-2.6-2-3.1-.6-.2-1.4-.3-2.4-.3h-3.6v7.2z"/>
  <path class="st0" d="M142 22.8c1.2 0 2 .1 3 .4 1.6.6 2.7 2 2.7 4.2 0 2.7-1.6 4.7-4.2 5 0 0 .2.2.5.6l3.3 5.6c.3.5.6.6 1.3.6h.5v1h-.5c-1.5 0-1.7-.2-2.4-1.3l-3.1-5.2c-.5-.9-.9-1.2-2.1-1.2h-2.9v6.7h2.4v1h-5.8v-1h2.4V23.8h-2.4v-1h7.3m-3.9 8.7h4.6c2.3 0 3.9-1.6 3.9-4 0-1.8-.8-2.8-2.1-3.3-.7-.3-1.5-.3-2.5-.3h-3.9v7.6m3.9-9.2h-7.8v2h2.4v14.4h-2.4v2h6.8v-2h-2.4V33h2.4c1 0 1.2.2 1.6.9l3.1 5.3c.8 1.3 1.1 1.6 2.8 1.6h1v-2h-1c-.6 0-.7-.1-.8-.3l-3.3-5.6v-.1c2.3-.6 3.8-2.6 3.8-5.3 0-2.3-1.1-3.9-3-4.7-1.1-.4-2-.5-3.2-.5zm-3.4 2h3.4c1 0 1.7.1 2.3.3 1.2.5 1.8 1.4 1.8 2.9 0 2.1-1.3 3.5-3.4 3.5h-4.1v-6.7zm27.9 16.5c-5 0-9.1-4.2-9.1-9.4 0-5.1 4-9.1 9.1-9.1s9.1 4 9.1 9.1c-.1 5.2-4.1 9.4-9.1 9.4zm0-17c-4.2 0-7.4 3.3-7.4 7.6 0 4.4 3.3 7.9 7.4 7.9 4.2 0 7.4-3.5 7.4-7.9 0-4.3-3.3-7.6-7.4-7.6z"/>
  <path class="st0" d="M166.5 22.5c4.9 0 8.8 3.9 8.8 8.9 0 5.1-4 9.1-8.8 9.1-4.9 0-8.8-4-8.8-9.1 0-5 3.9-8.9 8.8-8.9m0 17c4.3 0 7.7-3.5 7.7-8.1 0-4.5-3.4-7.9-7.7-7.9s-7.7 3.4-7.7 7.9c0 4.6 3.4 8.1 7.7 8.1m0-17.5c-5.2 0-9.3 4.1-9.3 9.4 0 5.3 4.2 9.6 9.3 9.6 5.1 0 9.3-4.3 9.3-9.6s-4.1-9.4-9.3-9.4zm0 17c-4 0-7.2-3.3-7.2-7.6 0-4.1 3.2-7.4 7.2-7.4s7.2 3.2 7.2 7.4c0 4.3-3.2 7.6-7.2 7.6zm17.6 1.5h-6.5V39h2.4V24.1h-2.4v-1.5h11.9v3.8H188v-2.3h-6.4v6.7h6.6v1.5h-6.6V39h2.5v1.2z"/>
  <path class="st0" d="M189.3 22.8v3.4h-1v-2.4h-6.9v7.3h6.7v1h-6.7v7.2h2.5v1H178v-1h2.4V23.8H178v-1h11.3m.5-.5h-12.4v2h2.4v14.4h-2.4v2h6.9v-2h-2.5v-6.2h6.7v-2h-6.7v-6.3h5.9v2.4h2v-3.9l.1-.4zm18 18.2h-6.3V39h2.3V24.1h-5.1V27h-1.5v-4.4H212V27h-1.5v-2.9h-5.1V39h2.4v1.2z"/>
  <path class="st0" d="M211.8 22.8v3.9h-1v-2.9h-5.6v15.4h2.4v1h-5.8v-1h2.4V23.8h-5.6v2.9h-1v-3.9h14.2m.5-.5H197v4.9h2v-2.9h4.6v14.4h-2.4v2h6.8v-2h-2.4V24.3h4.6v2.9h2v-4.4l.1-.5zm19.8 18.2h-6.3V39h2.4v-6.7h-10.6V39h2.4v1.5h-6.3V39h2.3V24.1h-2.3v-1.5h6.3v1.5h-2.4v6.7h10.6v-6.7h-2.4v-1.5h6.3v1.5h-2.4V39h2.4v1.2z"/>
  <path class="st0" d="M231.8 22.8v1h-2.4v15.4h2.4v1H226v-1h2.4V32h-11.1v7.2h2.4v1h-5.8v-1h2.4V23.8h-2.4v-1h5.8v1h-2.4V31h11.1v-7.2H226v-1h5.8m.5-.5h-6.8v2h2.4v6.2h-10.1v-6.2h2.4v-2h-6.8v2h2.4v14.4h-2.4v2h6.8v-2h-2.4v-6.2h10.1v6.2h-2.4v2h6.8v-2H230V24.3h2.4v-2h-.1zm14.9 18.2h-13V39h2.4V24.1h-2.4v-1.5h12.5v3.7h-1.5v-2.2h-7v6.6h6.9v1.5h-6.9V39h7.5v-2.4h1.5v3.6z"/>
  <path class="st0" d="M246.5 22.8V26h-1v-2.2H238V31h6.9v1H238v7.3h8v-2.4h1v3.4h-12.5v-1h2.4V23.8h-2.4v-1h12m.5-.5h-13v2h2.4v14.4H234v2h13.5v-4.4h-2v2.4h-7v-6.3h6.9v-1.9h-6.9v-6.1h6.5v2.2h2v-4.3zm25.4 18.2h-5.6V39h2l-1.7-4.5h-7l-1.7 4.5h2v1.6h-5.7V39h2l6.1-16.3.1-.2h1.5l.1.2 6.1 16.3h1.9v1.3l-.1.2zM260.6 33h5.9l-2.9-7.8v-.1.1l-3 7.8z"/>
  <path class="st0" d="m264.1 22.8 6.1 16.4h1.9v1H267v-1h2.1l-1.9-5h-7.4l-1.9 5h2.1v1h-5v-1h1.9l6.1-16.4h1.1m-3.9 10.4h6.6l-3-8.1c-.2-.5-.2-.9-.2-.9s-.1.5-.2.9l-3.2 8.1m4.3-10.9h-1.8l-.1.3-6 16.1h-2.1v2h6.1v-2h-1.9l1.5-4h6.7l1.5 4h-1.9v2h6.1v-2h-2l-6-16.1-.1-.3zm-3.6 10.4 2.6-6.9 2.6 6.9h-5.2zm27.4 7.8h-.7c-1.6 0-1.9-.2-2.6-1.4l-3.1-5.2c-.5-.8-.7-1-1.9-1h-2.7V39h2.4v1.6h-6.4V39h2.4V24.1h-2.4v-1.6h7.6c1.2 0 2.1.1 3.1.4 1.8.7 2.9 2.3 2.9 4.5 0 2.7-1.5 4.7-3.9 5.2.1.1.2.2.3.4l3.3 5.6c.2.4.4.4 1.1.4h.7v1.3l-.1.2zm-10.9-9.2h4.4c2.2 0 3.6-1.5 3.6-3.8 0-1.6-.7-2.6-2-3.1-.6-.2-1.4-.3-2.4-.3h-3.6v7.2z"/>
  <path class="st0" d="M281 22.8c1.2 0 2 .1 3 .4 1.6.6 2.7 2 2.7 4.2 0 2.7-1.6 4.7-4.2 5 0 0 .2.2.5.6l3.3 5.6c.3.5.6.6 1.3.6h.5v1h-.5c-1.5 0-1.7-.2-2.4-1.3l-3.1-5.2c-.5-.9-.9-1.2-2.1-1.2h-2.9v6.7h2.4v1h-5.8v-1h2.4V23.8h-2.4v-1h7.3m-3.9 8.7h4.6c2.3 0 3.9-1.6 3.9-4 0-1.8-.8-2.8-2.1-3.3-.7-.3-1.5-.3-2.5-.3h-3.9v7.6m3.9-9.2h-7.8v2h2.4v14.4h-2.4v2h6.8v-2h-2.4V33h2.4c1 0 1.2.2 1.6.9l3.1 5.3c.8 1.3 1.1 1.6 2.8 1.6h1v-2h-1c-.6 0-.7-.1-.8-.3l-3.3-5.6v-.1c2.3-.6 3.8-2.6 3.8-5.3 0-2.3-1.1-3.9-3-4.7-1-.4-2-.5-3.2-.5zm-3.4 2h3.4c1 0 1.7.1 2.3.3 1.2.5 1.8 1.4 1.8 2.9 0 2.1-1.3 3.5-3.4 3.5h-4.1v-6.7zM305 40.5h-.8c-1.6 0-1.9-.2-2.6-1.4l-3.1-5.2c-.5-.8-.7-1-1.8-1H294V39h2.4v1.6H290V39h2.4V24.1H290v-1.6h7.6c1.2 0 2.1.1 3.1.4 1.3.5 2.9 1.7 2.9 4.5 0 2.7-1.5 4.7-3.9 5.2.1.1.2.2.3.4l3.3 5.6c.2.4.4.4 1 .4h.8v1.5h-.1zm-11-9.2h4.4c2.2 0 3.6-1.5 3.6-3.8 0-1.6-.7-2.6-2-3.1-.6-.2-1.4-.3-2.4-.3H294v7.2z"/>
  <path class="st0" d="M297.7 22.8c1.2 0 2 .1 3 .4 1.6.6 2.7 2 2.7 4.2 0 2.7-1.6 4.7-4.2 5 0 0 .2.2.5.6l3.3 5.6c.3.5.6.6 1.3.6h.5v1h-.5c-1.5 0-1.7-.2-2.4-1.3l-3.1-5.2c-.5-.9-.9-1.2-2.1-1.2h-2.9v6.7h2.4v1h-5.8v-1h2.4V23.8h-2.4v-1h7.3m-3.9 8.7h4.6c2.3 0 3.9-1.6 3.9-4 0-1.8-.8-2.8-2.1-3.3-.7-.3-1.5-.3-2.5-.3h-3.9v7.6m3.9-9.2h-7.8v2h2.4v14.4h-2.4v2h6.8v-2h-2.4V33h2.4c1 0 1.2.2 1.6.9l3.1 5.3c.8 1.3 1.1 1.6 2.8 1.6h1v-2h-1c-.6 0-.7-.1-.8-.3l-3.3-5.6v-.1c2.3-.6 3.8-2.6 3.8-5.3 0-2.3-1.1-3.9-3-4.7-1.1-.4-2-.5-3.2-.5zm-3.4 2h3.4c1 0 1.7.1 2.3.3 1.2.5 1.8 1.4 1.8 2.9 0 2.1-1.4 3.5-3.4 3.5h-4.1v-6.7zm21.5 16.5c-5 0-9.1-4.2-9.1-9.4 0-5.1 4-9.1 9.1-9.1s9.1 4 9.1 9.1c-.1 5.2-4.1 9.4-9.1 9.4zm0-17c-4.2 0-7.4 3.3-7.4 7.6 0 4.4 3.3 7.9 7.4 7.9s7.4-3.5 7.4-7.9c0-4.3-3.3-7.6-7.4-7.6z"/>
  <path class="st0" d="M315.8 22.5c4.9 0 8.8 3.9 8.8 8.9 0 5.1-4 9.1-8.8 9.1-4.9 0-8.8-4-8.8-9.1 0-5 3.9-8.9 8.8-8.9m0 17c4.3 0 7.7-3.5 7.7-8.1 0-4.5-3.4-7.9-7.7-7.9s-7.7 3.4-7.7 7.9c0 4.6 3.4 8.1 7.7 8.1m0-17.5c-5.2 0-9.3 4.1-9.3 9.4 0 5.3 4.2 9.6 9.3 9.6 5.1 0 9.3-4.3 9.3-9.6S321 22 315.8 22zm0 17c-4 0-7.2-3.3-7.2-7.6 0-4.1 3.2-7.4 7.2-7.4s7.2 3.2 7.2 7.4c0 4.3-3.2 7.6-7.2 7.6zm28.2 1.5h-1.8v-.2l-4.3-14.8-4.2 14.8-.1.2h-1.7v-.2l-4.2-16.2h-1.9v-1.5h5.6v1.5h-2l3.4 13.7 4.3-15 .1-.2h1.5l.1.2 4.3 15 3.4-13.7h-2v-1.5h5.6v1.5h-1.9L344 40.3z"/>
  <path class="st0" d="M349.8 22.8v1H348l-4.2 16.4h-1.3l-4.3-14.9c-.1-.4-.2-.9-.2-.9h-.1s0 .5-.2.9l-4.3 14.9h-1.3l-4.2-16.4h-1.8v-1h5.1v1H329l3.5 14.1c.1.4.2.9.2.9h.1s.1-.5.2-.9l4.3-15.1h1.2l4.3 15.1c.1.4.2.9.2.9h.1s.1-.5.2-.9l3.5-14.1h-2.1v-1h5.1m.5-.5h-6.1v2h2l-3.1 12.6-4.1-14.2-.1-.4H337l-.1.4-4.1 14.2-3.1-12.6h2v-2h-6.1v2h2l4.1 16 .1.4h2.1l.1-.4 4-14 4 14 .1.4h2.1l.1-.4 4.1-16h2v-2h-.1zM64.8 7.7h1.3v3h1l1.7-3h1.5l-2.1 3.5 2.2 3.8h-1.5L67 11.9h-1v3.2h-1.3V7.7zm7.9 0H74v7.4h-1.3V7.7zm7.7-.1c2.2 0 3.8 1.6 3.8 3.8 0 2.2-1.6 3.9-3.8 3.9-2.2 0-3.8-1.7-3.8-3.9 0-2.1 1.7-3.8 3.8-3.8zm0 6.4c1.3 0 2.4-1.1 2.4-2.6s-1.1-2.5-2.4-2.5c-1.3 0-2.4 1.1-2.4 2.5 0 1.5 1.1 2.6 2.4 2.6zm6.4-6.3h1.3L91 12c.3.4.6 1.1.6 1.1s-.1-.7-.1-1.1V7.7h1.3v7.4h-1.3l-2.8-4.2c-.3-.4-.6-1.1-.6-1.1s.1.7.1 1.1v4.2h-1.3V7.7zm9.1 0h2.5c2.3 0 3.8 1.3 3.8 3.7 0 2.3-1.5 3.7-3.8 3.7h-2.5V7.7zm2.5 6.2c1.5 0 2.4-.9 2.4-2.5s-1-2.5-2.4-2.5h-1.1V14h1.1zm10.1-.7h-2.6l-.6 1.9h-1.4l2.6-7.4h1.4l2.6 7.4h-1.4l-.6-1.9zM107.2 9s-.2.7-.3 1.1l-.7 2h1.9l-.7-2c-.1-.4-.2-1.1-.2-1.1zm8.7-1.4c1.8 0 2.7.9 2.7.9l-.7 1s-.8-.7-2-.7c-1.6 0-2.5 1.1-2.5 2.5 0 1.6 1.1 2.6 2.5 2.6 1.1 0 1.8-.8 1.8-.8v-.9h-1.1V11h2.3v3.9h-1.1v-.7s-.8.8-2.1.8c-1.9 0-3.6-1.5-3.6-3.8 0-1.9 1.6-3.6 3.8-3.6zm9.5 5.6h-2.6l-.6 1.9h-1.4l2.6-7.4h1.4l2.6 7.4H126l-.6-1.9zM124.1 9s-.2.7-.3 1.1l-.7 2h1.9l-.7-2c-.1-.4-.2-1.1-.2-1.1zm9.2-1.3h1.3v6.2h3.2v1.2h-4.5V7.7zm10-.1c2.2 0 3.8 1.6 3.8 3.8 0 2.2-1.6 3.9-3.8 3.9-2.2 0-3.8-1.7-3.8-3.9 0-2.1 1.6-3.8 3.8-3.8zm0 6.4c1.3 0 2.4-1.1 2.4-2.6s-1.1-2.5-2.4-2.5c-1.3 0-2.4 1.1-2.4 2.5 0 1.5 1 2.6 2.4 2.6zm6.4-6.3h2.5c2.3 0 3.8 1.3 3.8 3.7 0 2.3-1.5 3.7-3.8 3.7h-2.5V7.7zm2.4 6.2c1.5 0 2.4-.9 2.4-2.5s-1-2.5-2.4-2.5H151V14h1.1zm9.8-6.3c1.8 0 2.7.9 2.7.9l-.7 1s-.8-.7-2-.7c-1.6 0-2.5 1.1-2.5 2.5 0 1.6 1.1 2.6 2.5 2.6 1.1 0 1.8-.8 1.8-.8v-.9h-1.1V11h2.3v3.9h-1.1v-.7s-.8.8-2.1.8c-1.9 0-3.6-1.5-3.6-3.8 0-1.9 1.6-3.6 3.8-3.6zm5.8.1h4.4v1.2H169v1.9h2.5V12H169v2h3.2v1.2h-4.6V7.7zM38.4 33.2l-5 5.1 13.1 13.1 5-5.1-13.1-13.1z"/>
  <path class="st0" d="M45.5 35.1c-.2.4-.6.5-1 .3-.5-.2-.9-.6-1.1-1.1-.1-.3-.1-.6.1-.8.2-.2.5-.3.7-.3.5.1 1 .4 1.2.9.2.3.3.7.1 1zm-9.2-5L30 36.3c-.4.2-.7-.2-.9-.5 0-.2.1-.4.2-.6l6.1-6.1c.2-.1.5-.2.7 0 .3.3.5.7.2 1zM27.6 35c-.4-.5-.4-1.3-.8-1.8.1-.4.4-.7.8-.8l1.4.2c.2.2.5.2.6.5-.3.3 0 .9-.5 1.1-.5.1-.9 1-1.5.8zM26 30.6c-.2-.2-.3-.4-.1-.6.3-.5.9-.1 1.2-.2.2.3.7.6.4 1 .3.6-.4.9-.4 1.4-.3.2-.6-.1-1-.2-.2-.4-.4-.9-.1-1.4zm-.8-4.2c-.1-.2.1-.3.1-.6.3-.2.5-.4.8-.4.4.2.6.3.8.7-.2.3-.6.9-1 .9-.3 0-.5-.3-.7-.6zm-.5-6.5c0-.2-.3-.3-.4-.5.1-.4 0-.9-.5-1.2-.4-.1-.3-.7-.8-.6-.2-.5.2-.9-.2-1.2 0-.4.5-.4.5-.8.1-.1.1-.2.3-.2.1-.1.4-.2.6-.4.4 0 .2.6.6.6.3.1.2.3.1.5.1.3.5.6.4 1 .6.2.1.8.6 1.1.1 0 0 .2 0 .3.2.4.3.8-.2 1.2.1.3 0 .5-.3.6-.2-.2-.8.2-.7-.4zm-2 12.4c-.2.4.2 1-.4 1.3-.5-.2-1.4.1-1.3-.8.2-.4-.5-.7-.1-1.1-.2-.4.4-.4.3-.7.4-.1.9-.5 1.1 0 .2-.1.3.2.4.3 0 .1-.1.3 0 .4.1.3.1.5 0 .6zm-2.6 6.6c-.5-.2-.9.2-1.4.1-.5-.6-1.1-.9-.9-1.7-.4-.2-.1-.8-.7-.8.2-.3-.1-.6-.3-.9-.3-.2 0-.5-.2-.8.1-.4.1-.9.5-1.1.3-.2.6-.3 1-.1.5.6.6 1.2.6 2 .6.1.1.9.8.7 0 .4.3.3.5.4.4.3.9.5.8 1-.4.3-.2.9-.7 1.2zm-4.4-24.6c-.2 0-.5 0-.6-.2.3-.4-.3-.5-.2-.9-.8-.3.4-.7-.1-1 0-.5.6-.7.9-.9.3.3.7.1 1-.1.3.5.8.6 1.3.8.4.1.2.6.7.5.3.2.1.6 0 .9-.1.4-.1.9-.6 1.1-.4.1-.7-.2-1.1.1-.3-.3-.8 0-1.3-.3zm-.2 8.1c-.5.4-1.1.1-1.6-.2-.4-.2-1.1 0-1.3-.6-.1-.5 0-.9.2-1.4h.2c-.1-.3-.1-.7 0-1 .4-.4.8.1 1.2-.2.3.3.9.5.8 1 .4.2.6.8 1 1-.2.6.3 1.3-.5 1.4zm-2.7 5.8c-.3.1-.5.4-.8.2-.4-.3-.7-.7-1-1.1l-.2-.1c.3-.3.1-.6.1-1 .4-.2.5-.8 1-.7.3-.2.4.1.7 0 .2.4.6 1 .3 1.5.9.3-.3.7-.1 1.2zM9.7 17.5c-.4-.1-.8-.3-1.3-.3-.3-.4-.9-.3-1.1-.8-.3 0-.3-.2-.3-.4.1-.4.3-.8-.1-1-.6-1 .6-1.4 1.3-1 .4.3.7.8.8 1.3.5.7 1.4.3 1.9 1-.1.3-.2.6-.3.8l-.9.4zm.3-7.9c.4-.4 1 0 1.3-.5.5 0 .6.5 1.1.4.2.1.4.3.5.5-.2.4.3.6.1 1-.4.7-1.2.9-1.5 1.6-.2 0-.3.2-.5 0-.5-.2-.5-.7-.9-1.1.3-.5-.5-.9-.2-1.4h-.1c0-.2.1-.4.2-.5zm2.2-2.8c.3 0 0-.4.3-.4.2.1.6.1.8 0 .3-.2.6.2.8-.1.2.2.5.2.7.4v.1c.4-.2.4.2.6.5.3.2-.2.3-.1.6l-.7.3v-.1c-.2 0-.4.3-.6.1 0-.4-.4 0-.6-.2-.2.2-.4 0-.6.1-.2-.5-.7-.8-.6-1.3zm7.3 16.7c-.2.6.6.9.5 1.5.6.3.5.9 1 1.3.1.4-.2.8-.5.9-.3.1-.7.3-1 .2-.3-.4-.9-.1-1.2-.7-.2-.5-.8-.8-.9-1.4.3-.7-.3-1.4.3-1.9l.9-.7c.2.2 1.1 0 .9.8zM21 9.4c1.3 0 2.3.9 3.5 1.2.4-.2.5.5.8.1.3.2 0 .5.3.8.1.2-.2.5-.3.7-1 .4-2.3 1-3.3.2-.7-.1-.9-1-1.6-1.2-.1-.3-.3-.6-.3-.9l.9-.9zm6.4 19.1c0-.4.4-.6.5-.9.7 0 .8-1 1.5-.8l.7-.2c.1.4.3.6.2 1-.2.5-.9.9-.7 1.5-.4.5-1.1.3-1.7.3 0-.5-1-.3-.5-.9zm1.8-15.4c.4-.6 1.3-.3 1.9-.4.4.4 1.1-.3 1.3.5.1.4.4.7 0 1-.3.1-.4.5-.7.6-.9-.1-1.9 1.3-2.6.1-.1-.6-.3-1.2.1-1.8zm.7 17.8c.1-.1.3-.3.2-.5.2-.2.4-.4.7-.3 0 .3.2.2.4.2.2.2.4.5.4.8-.4.5-.8 1-1.3 1.4-.2 0-.4-.1-.5-.3 0-.5.3-.9.1-1.3zm3-12.7c.4.1.6.6.7 1 .3.2.3.6.4.9 0 .2-.1.3-.1.6.4.2 0 .7.2 1-.3.3-.5 1-1 1-.2.5-.8.8-1.1 1.1-.4 0-.7.5-1.1.2-.3-.3-.4-.5-.4-.8.1-.9 1-1.1 1.1-1.9.3-.2.5-.5.5-.8-.5-.4.6-1-.3-1.2-.1-.5-.9-.4-.9-1.1.3-.3.5-1 1.1-.8.3.4.8.3.9.8zm1.5 8.9c.2.4.2.9 0 1.3-.4.4-1 .6-1 1.3l-.4.2c-.1-.3-.1-.6-.4-.7-.2-.5-.3-1-.8-1.3-.2-.3-.3-.8-.2-1.1.3-.1.7-.5.9-.1.6-.2 1.2.5 1.9.4zm.1 16.2c.4.2.9.5 1 1 0 .3.2.7 0 .9-.3.3-.7.4-1.1.2-.5-.2-1-.8-1.1-1.3-.1-.6.6-1.1 1.2-.8zM5.5 5.4c-.2.3-.6.5-.9.8-.4-.2-.9-.4-1.3-.6-.1-.4-.3-.7-.3-1 .7-.3.8-1.2 1.6-1.1l.6.1c-.1.3.5.3.2.8 0 .1.2.3-.1.4.3 0 0 .4.2.6zM37.1 20c0-.3 0-.7.2-1 .4-.3.9-.3 1.3-.3.3.4.8.5.9 1l.4 1c-.7.5-.2 1.6-1 2-.7 0-1 1.2-1.8.8-.3-.3-.7-.5-.6-1l-.2-.1c-.1-.8.4-1.6.8-2.4zM48 33.8c-.2-1.3-1.6-2.6-2.8-3.1-1.1-.4-2.5-.1-3.4.6-1 .4-1.6-.6-2.3-1.2.3-.3.6-.6.6-1 0-.3-.1-.7-.4-.8-.8-.3-1.4.4-2 .9.2-.3.2-.7.1-1-.2-.4-.6-.6-1-.7-.6.2-1.3 0-1.7-.5.2-.5.5-.9 1-1.1 1.4-.3 2.9-.3 4.2-.8.3-.4.7-.8.9-1.2-.5-.3.4-.5.1-.9-.2-.8.8-.9 1-1.6.1-.2-.3-.5 0-.7-.1-.4.1-.9.6-1.2.4-.5-.1-.9.3-1.4 1-1-.7-1.7-1-2.5-.9-.3-1.7-.8-2.8-.7-.3-.3-.9.1-1.1-.3 0-.4-.3-.7-.6-1-.5.1-.8-.4-1.3-.5-.7-.7-1.6-1-2.4-1.6 0-.9-.9-.1-1.1-.9-.6-.4-.8-1.3-1.7-1.3-.6-.4-1.4.2-2-.4-.9 0-1.7-.5-2.5-.8-.8-.3-1.9.1-2.4-.8-1-.4-1.4-1.4-2.3-2.1-.2-.1-.5 0-.7-.3-.6 0-1.2-.2-1.8 0-.7.9-1.9.1-2.8-.1-.5-.3-.9-.8-1.4-1-.4-.3-.9-.3-1.4-.4 0-.2-.2-.1-.3-.1-.4-.3-1.2-.1-1.7-.1l-1.2-.9c-.3-.4-.8-.2-1-.6-.5-.4-1-.8-1.7-1-.9-.1-1.7.7-2.6.4-.3-.3-.6-.4-1-.6-.3 0-.6-.3-1-.3-.9.3-1.5-.5-2.3 0C.9.4.7.3.5.3.3.3.2.5.2.6c.3 1 .1 1.9.2 2.9.5.5-.2 1.3.3 1.8.6.5.1 1.3.5 1.9.6.4.7 1.1 1 1.7 0 .3.4.6.3.9.7.2.1.9.3 1.3.2.5.2.8.4 1.2.4 0 .3.6.5.9.3.3.3.8.7 1-.1.8.5 1.3.1 2.1.5.5.4 1.2.4 1.9 0 .9 1.1 1 1.2 1.7.5.6.5 1.2.4 1.9.2.4-.1 1.2.5 1.4.2.2-.2.5.1.7 0 .3.2.6.5.8.5.8 1 1.4 1.8 2 1 .6.6 1.8.7 2.7-.4 1.3 1.1 1.8 1.2 2.9.1.3.4.3.4.6.6.3.4 1.2 1.1 1.3 0 .2.2.5 0 .7-.1.3.3.5.5.8 0 .5.6.8.8 1.3.1.2-.2.6.2.7 0 .9 1.3 1.3 1.4 2.2-.1.4.2.7.3 1 0 .4.5.6.4 1 .1.4.4.6.7.7.3.8 1.2.8 1.6 1.4.3.2.7 0 1-.2.7 0 1-.7 1.6-.9.8-.6 1.8-.7 2.7-1.2.9-.8 1.1-2.1 1.6-3 0-.5-.2-1-.5-1.5.1-.4-.1-.8 0-1.2.3-.7 1.2-.3 1.7-.3.2.1.3.3.5.2.4.1.1.5.1.8.1.4.3.8.6 1 .3.1.9.1 1.1 0-.4.5-1.2.9-1.1 1.7 0 .3.2.5.5.6.7.2 1.1-.3 1.6-.7.5.7 1.5 1.1 1.2 2-.8.9-1.1 2.4-.7 3.5.4 1.1 1.6 2.5 2.9 2.9 2 .4 4.2-.1 5.7-1.8L31.4 38l6.7-6.7 7.9 7.8c1-.9 1.5-2 1.9-3.1.2-.6.3-1.4.1-2.2zm7.5 12.1v.4h-.7v2h-.5v-2h-.8v-.4h2zm1.9 0h.7v2.4h-.5v-2l-.5 2h-.5l-.5-2v2h-.5v-2.4h.7l.4 1.9.7-1.9z"/>
</svg>
